<?xml version="1.0" standalone="no"?>
<!DOCTYPE svg PUBLIC "-//W3C//DTD SVG 20010904//EN"
 "http://www.w3.org/TR/2001/REC-SVG-20010904/DTD/svg10.dtd">
<svg version="1.0" xmlns="http://www.w3.org/2000/svg"
 width="1464.000000pt" height="1464.000000pt" viewBox="0 0 1464.000000 1464.000000"
 preserveAspectRatio="xMidYMid meet">
<metadata>
Created by potrace 1.14, written by Peter Selinger 2001-2017
</metadata>
<g transform="translate(0.000000,1464.000000) scale(0.100000,-0.100000)"
fill="#000000" stroke="none">
<path d="M3860 14149 c-135 -17 -259 -109 -322 -236 -31 -64 -33 -73 -33 -178
0 -103 2 -114 32 -178 88 -186 290 -279 514 -237 222 41 379 263 340 479 -35
190 -175 324 -366 351 -78 11 -75 11 -165 -1z"/>
<path d="M6125 13304 c-11 -1 -69 -8 -130 -14 -235 -25 -502 -89 -705 -170
-531 -211 -970 -557 -1293 -1019 -296 -422 -471 -929 -497 -1441 -4 -91 -7
-1632 -6 -3425 2 -3560 -2 -3299 56 -3621 174 -959 704 -1809 1495 -2396 248
-183 635 -393 918 -498 283 -105 592 -179 897 -217 205 -25 715 -25 920 0
1506 186 2735 1200 3195 2637 118 369 169 714 170 1135 0 360 -29 607 -109
930 -130 525 -355 979 -723 1455 -99 128 -1447 1961 -1603 2180 l-47 66 39 59
c318 491 474 1049 455 1630 -21 630 -241 1208 -648 1702 -537 649 -1341 1019
-2202 1012 -89 -1 -171 -3 -182 -5z m507 -400 c373 -51 691 -173 1025 -392
179 -118 440 -367 579 -552 203 -271 368 -631 433 -947 99 -479 54 -986 -125
-1419 -48 -117 -133 -287 -152 -306 -4 -3 -360 475 -792 1064 -432 589 -818
1109 -858 1155 -192 220 -480 416 -752 511 -498 174 -1081 125 -1559 -130
l-93 -50 18 32 c11 18 65 90 121 160 101 127 243 267 378 375 326 260 757 444
1170 499 144 19 469 20 607 0z m-979 -1199 c300 -68 567 -233 768 -475 82 -99
1699 -2301 1699 -2314 0 -21 -268 -276 -372 -354 -163 -122 -387 -246 -590
-326 -112 -44 -306 -96 -458 -123 -202 -35 -520 -37 -714 -4 -533 90 -966 310
-1337 680 -193 192 -341 395 -460 632 -206 410 -293 896 -217 1216 65 273 196
505 391 689 349 331 852 479 1290 379z m-1657 -2797 c134 -192 343 -419 529
-574 309 -256 747 -472 1130 -558 l100 -23 -125 -63 c-182 -91 -267 -140 -440
-255 -473 -314 -885 -748 -1169 -1230 -39 -66 -75 -127 -80 -135 -6 -10 -10
509 -10 1453 -1 807 1 1467 3 1467 2 0 30 -37 62 -82z m4730 -803 c154 -209
283 -385 287 -391 4 -7 -64 19 -151 56 -332 143 -734 251 -1054 285 l-67 7 87
55 c182 115 312 216 462 359 l94 91 31 -41 c18 -22 158 -212 311 -421z m-1025
-431 c601 -66 1197 -311 1699 -700 136 -104 425 -389 532 -524 324 -406 551
-854 667 -1316 75 -298 103 -534 104 -854 0 -230 -9 -340 -44 -560 -106 -666
-433 -1313 -914 -1809 -292 -300 -582 -511 -960 -696 -346 -170 -647 -261
-1060 -322 -184 -27 -670 -25 -855 4 -619 97 -1141 320 -1630 699 -148 114
-460 427 -574 574 -339 439 -549 892 -660 1419 -202 957 34 1986 632 2761 616
798 1552 1292 2537 1339 183 9 359 4 526 -15z"/>
</g>
</svg>
